<svg xmlns="http://www.w3.org/2000/svg" width="980" height="1060" viewBox="0 0 980 1060"><rect width="980" height="1060" fill="#F8F7F3"/><text x="48" y="44" font-family="Nunito,Inter,sans-serif" font-size="28" font-weight="800" fill="#222831" text-anchor="start">First-login onboarding · Mobile Arabic RTL</text><text x="48" y="72" font-family="Inter,Arial,sans-serif" font-size="14" font-weight="500" fill="#697386" text-anchor="start">Provisional direction · 390 px</text><rect x="70" y="95" width="380" height="860" rx="32" fill="#FFF" stroke="#222831" stroke-width="3"/><rect x="72" y="123" width="376" height="830" rx="24" fill="#FFF" stroke="#E2E4E8" stroke-width="2"/><rect x="104" y="147" width="42" height="42" rx="13" fill="#F57436" stroke="#F57436" stroke-width="1"/><text x="125" y="175" font-family="Nunito,Inter,sans-serif" font-size="21" font-weight="800" fill="#FFF" text-anchor="middle">R</text><text x="160" y="175" font-family="Nunito,Inter,sans-serif" font-size="22" font-weight="800" fill="#F57436" text-anchor="start">Rafiqi</text><text x="416" y="174" font-family="Inter,Arial,sans-serif" font-size="13" font-weight="700" fill="#697386" text-anchor="end">تخطي الآن</text><text x="260" y="227" font-family="Inter,Arial,sans-serif" font-size="12" font-weight="700" fill="#697386" text-anchor="middle">مرحبًا · ٠ من ٣</text><rect x="140" y="243" width="240" height="6" rx="3" fill="#F8F7F3" stroke="#F8F7F3" stroke-width="1"/><rect x="140" y="243" width="48" height="6" rx="3" fill="#F57436" stroke="#F57436" stroke-width="1"/><g transform="translate(210 280) scale(1.05)"><circle cx="48" cy="48" r="44" fill="#FFF0E7"/><path d="M23 48C23 18 73 18 73 48v18c-10 14-40 14-50 0z" fill="#F57436"/><circle cx="39" cy="48" r="3"/><circle cx="57" cy="48" r="3"/><path d="M40 61q8 7 16 0" fill="none" stroke="#222831" stroke-width="3" stroke-linecap="round"/><path d="M27 26L20 10M69 26l7-16" stroke="#F57436" stroke-width="7" stroke-linecap="round"/></g><rect x="171" y="389" width="178" height="28" rx="14" fill="#F1EDFF" stroke="#F1EDFF" stroke-width="1"/><text x="260" y="408" font-family="Inter,Arial,sans-serif" font-size="12" font-weight="700" fill="#6653B5" text-anchor="middle">محادثة خاصة لدقيقتين</text><text x="260" y="454" font-family="Arial,sans-serif" font-size="28" font-weight="800" fill="#222831" text-anchor="middle">أهلًا يا أحمد</text><text x="260" y="492" font-family="Arial,sans-serif" font-size="15" font-weight="600" fill="#222831" text-anchor="middle">تعرّف إلى رفيقي، رفيقك في التعلّم</text><text x="260" y="528" font-family="Inter,Arial,sans-serif" font-size="14" font-weight="400" fill="#697386" text-anchor="middle">أجب عن ثلاثة أسئلة قصيرة حتى يشرح لك</text><text x="260" y="552" font-family="Inter,Arial,sans-serif" font-size="14" font-weight="400" fill="#697386" text-anchor="middle">رفيقي بالطريقة التي تناسبك.</text><rect x="104" y="603" width="312" height="108" rx="16" fill="#F1EDFF" stroke="#F1EDFF" stroke-width="1"/><text x="392" y="637" font-family="Inter,Arial,sans-serif" font-size="13" font-weight="600" fill="#6653B5" text-anchor="end">أنت تختار ما تريد مشاركته</text><text x="392" y="662" font-family="Inter,Arial,sans-serif" font-size="13" font-weight="600" fill="#6653B5" text-anchor="end">يمكنك التعديل أو التخطي</text><text x="392" y="687" font-family="Inter,Arial,sans-serif" font-size="13" font-weight="600" fill="#6653B5" text-anchor="end">هذه الإجابات ليست درجات</text><rect x="112" y="749" width="296" height="48" rx="12" fill="#F57436" stroke="#F57436" stroke-width="1"/><text x="260" y="779" font-family="Inter,Arial,sans-serif" font-size="14" font-weight="700" fill="#FFF" text-anchor="middle">ابدأ المحادثة</text><text x="260" y="824" font-family="Inter,Arial,sans-serif" font-size="12" font-weight="600" fill="#697386" text-anchor="middle">تخطي الآن والانتقال إلى اليوم</text><rect x="190" y="938" width="140" height="5" rx="3" fill="#222831" stroke="#222831" stroke-width="1"/><rect x="530" y="95" width="380" height="860" rx="32" fill="#FFF" stroke="#222831" stroke-width="3"/><rect x="532" y="123" width="376" height="830" rx="24" fill="#FFF" stroke="#E2E4E8" stroke-width="2"/><rect x="564" y="147" width="42" height="42" rx="13" fill="#F57436" stroke="#F57436" stroke-width="1"/><text x="585" y="175" font-family="Nunito,Inter,sans-serif" font-size="21" font-weight="800" fill="#FFF" text-anchor="middle">R</text><text x="620" y="175" font-family="Nunito,Inter,sans-serif" font-size="22" font-weight="800" fill="#F57436" text-anchor="start">Rafiqi</text><text x="876" y="174" font-family="Inter,Arial,sans-serif" font-size="13" font-weight="700" fill="#697386" text-anchor="end">تخطي الآن</text><text x="720" y="227" font-family="Inter,Arial,sans-serif" font-size="12" font-weight="700" fill="#697386" text-anchor="middle">السؤال ١ من ٣</text><rect x="600" y="243" width="240" height="6" rx="3" fill="#F8F7F3" stroke="#F8F7F3" stroke-width="1"/><rect x="600" y="243" width="96" height="6" rx="3" fill="#F57436" stroke="#F57436" stroke-width="1"/><text x="874" y="285" font-family="Arial,sans-serif" font-size="22" font-weight="800" fill="#222831" text-anchor="end">لنبدأ بما تستمتع به</text><rect x="558" y="325" width="324" height="126" rx="18" fill="#F1EDFF" stroke="#F1EDFF" stroke-width="1"/><text x="850" y="360" font-family="Inter,Arial,sans-serif" font-size="16" font-weight="700" fill="#222831" text-anchor="end">ما الذي تستمتع بتعلّمه</text><text x="850" y="386" font-family="Inter,Arial,sans-serif" font-size="16" font-weight="700" fill="#222831" text-anchor="end">أو فعله خارج الفصل؟</text><rect x="650" y="485" width="210" height="28" rx="14" fill="#F1EDFF" stroke="#F1EDFF" stroke-width="1"/><text x="755" y="504" font-family="Inter,Arial,sans-serif" font-size="12" font-weight="700" fill="#6653B5" text-anchor="middle">أمثلة من الحياة</text><rect x="558" y="541" width="324" height="100" rx="14" fill="#FFF" stroke="#E2E4E8" stroke-width="1"/><text x="850" y="573" font-family="Arial,sans-serif" font-size="13" font-weight="400" fill="#697386" text-anchor="end">اكتب إجابتك بطريقتك…</text><rect x="558" y="685" width="324" height="48" rx="12" fill="#F57436" stroke="#F57436" stroke-width="1"/><text x="720" y="715" font-family="Inter,Arial,sans-serif" font-size="14" font-weight="700" fill="#FFF" text-anchor="middle">متابعة</text><rect x="558" y="745" width="324" height="48" rx="12" fill="#FFF" stroke="#E2E4E8" stroke-width="1"/><text x="720" y="775" font-family="Inter,Arial,sans-serif" font-size="14" font-weight="700" fill="#222831" text-anchor="middle">رجوع</text><text x="720" y="829" font-family="Arial,sans-serif" font-size="12" font-weight="500" fill="#697386" text-anchor="middle">يمكنك تعديل إجابتك لاحقًا</text><rect x="650" y="938" width="140" height="5" rx="3" fill="#222831" stroke="#222831" stroke-width="1"/><text x="48" y="1015" font-family="Inter,Arial,sans-serif" font-size="13" font-weight="700" fill="#222831" text-anchor="start">RTL: logical alignment · mirrored direction · persistent skip · full-width touch actions</text></svg>