<svg xmlns="http://www.w3.org/2000/svg" xmlns:xlink="http://www.w3.org/1999/xlink" width="1440" height="1050" viewBox="0 0 1440 1050"><title>S01 Today</title><g id="Shell"><rect x="0" y="0" width="1440" height="1050" rx="0" fill="#F7F7F5" stroke="#F7F7F5"/><rect x="0" y="0" width="224" height="1050" rx="0" fill="#FFFFFF" stroke="#DDE1E5"/><rect x="224" y="0" width="1216" height="80" rx="0" fill="#FFFFFF" stroke="#DDE1E5"/><text x="28" y="55" font-family="Nunito, Inter, Arial, sans-serif" font-size="30" font-weight="800" fill="#F57436">Rafiqi</text><rect x="256" y="20" width="560" height="40" rx="8" fill="#F7F7F5" stroke="#DDE1E5"/><text x="272" y="44" font-family="Inter, Arial, sans-serif" font-size="14" font-weight="400" fill="#657080">Search lessons, resources, conversations…</text><text x="1080" y="45" font-family="Inter, Arial, sans-serif" font-size="14" font-weight="600" fill="#222831">AR / EN</text><text x="1260" y="42" font-family="Inter, Arial, sans-serif" font-size="16" font-weight="600" fill="#222831">Ahmed</text><text x="1260" y="60" font-family="Inter, Arial, sans-serif" font-size="12" font-weight="400" fill="#657080">Grade 10</text></g><g id="Navigation---Today"><rect x="16" y="110" width="192" height="44" rx="8" fill="#FFF0E7" stroke="#FFF0E7"/><rect x="30" y="121" width="16" height="16" rx="4" fill="#F57436" stroke="#F57436"/><text x="62" y="134" font-family="Nunito, Inter, Arial, sans-serif" font-size="16" font-weight="700" fill="#F57436">Today</text></g><g id="Navigation---Learn"><rect x="30" y="179" width="16" height="16" rx="4" fill="#FFFFFF" stroke="#657080"/><text x="62" y="192" font-family="Inter, Arial, sans-serif" font-size="16" font-weight="400" fill="#222831">Learn</text></g><g id="Navigation---Homework"><rect x="30" y="237" width="16" height="16" rx="4" fill="#FFFFFF" stroke="#657080"/><text x="62" y="250" font-family="Inter, Arial, sans-serif" font-size="16" font-weight="400" fill="#222831">Homework</text></g><g id="Navigation---My-progress"><rect x="30" y="295" width="16" height="16" rx="4" fill="#FFFFFF" stroke="#657080"/><text x="62" y="308" font-family="Inter, Arial, sans-serif" font-size="16" font-weight="400" fill="#222831">My progress</text></g><g id="Navigation---Resources"><rect x="30" y="353" width="16" height="16" rx="4" fill="#FFFFFF" stroke="#657080"/><text x="62" y="366" font-family="Inter, Arial, sans-serif" font-size="16" font-weight="400" fill="#222831">Resources</text></g><g id="Navigation---Connect"><rect x="30" y="411" width="16" height="16" rx="4" fill="#FFFFFF" stroke="#657080"/><text x="62" y="424" font-family="Inter, Arial, sans-serif" font-size="16" font-weight="400" fill="#222831">Connect</text></g><g id="Navigation---My-Rafiqi"><rect x="30" y="469" width="16" height="16" rx="4" fill="#FFFFFF" stroke="#657080"/><text x="62" y="482" font-family="Inter, Arial, sans-serif" font-size="16" font-weight="400" fill="#222831">My Rafiqi</text></g><g id="Page-heading"><text x="256" y="124" font-family="Inter, Arial, sans-serif" font-size="12" font-weight="600" fill="#657080">S01 / STUDENT</text><text x="256" y="170" font-family="Nunito, Inter, Arial, sans-serif" font-size="32" font-weight="800" fill="#222831">Today</text><text x="256" y="201" font-family="Inter, Arial, sans-serif" font-size="16" font-weight="400" fill="#657080">Hi Ahmed. Ready for your next step?</text></g><g id="Next-up---Physics"><rect x="256" y="233" width="716" height="217" rx="12" fill="#FFF0E7" stroke="#DDE1E5"/><text x="280" y="277" font-family="Nunito, Inter, Arial, sans-serif" font-size="20" font-weight="700" fill="#222831">Next up · Physics</text><text x="280" y="318" font-family="Nunito, Inter, Arial, sans-serif" font-size="16" font-weight="700" fill="#222831">Newton’s Third Law</text><text x="280" y="356" font-family="Inter, Arial, sans-serif" font-size="16" font-weight="400" fill="#222831">10:30 · Your teacher: Mr. Adel</text><rect x="280" y="386" width="151.8" height="40" rx="8" fill="#F57436" stroke="#F57436"/><text x="294" y="410" font-family="Inter, Arial, sans-serif" font-size="14" font-weight="600" fill="#FFFFFF">Start warm-up</text></g><g id="Continue-learning"><rect x="996" y="233" width="412" height="217" rx="12" fill="#FFFFFF" stroke="#DDE1E5"/><text x="1020" y="277" font-family="Nunito, Inter, Arial, sans-serif" font-size="20" font-weight="700" fill="#222831">Continue learning</text><text x="1020" y="318" font-family="Inter, Arial, sans-serif" font-size="16" font-weight="400" fill="#657080">Study Cave · Forces and motion</text><text x="1020" y="356" font-family="Inter, Arial, sans-serif" font-size="16" font-weight="400" fill="#657080">60% complete</text><rect x="1020" y="386" width="108.8" height="40" rx="8" fill="#F57436" stroke="#F57436"/><text x="1034" y="410" font-family="Inter, Arial, sans-serif" font-size="14" font-weight="600" fill="#FFFFFF">Continue</text></g><g id="Homework"><rect x="256" y="474" width="716" height="217" rx="12" fill="#FFFFFF" stroke="#DDE1E5"/><text x="280" y="518" font-family="Nunito, Inter, Arial, sans-serif" font-size="20" font-weight="700" fill="#222831">Homework</text><text x="280" y="559" font-family="Inter, Arial, sans-serif" font-size="16" font-weight="400" fill="#657080">Action &amp; Reaction · Due tomorrow</text><text x="280" y="597" font-family="Inter, Arial, sans-serif" font-size="16" font-weight="400" fill="#657080">Guided practice with hints</text><rect x="280" y="627" width="151.8" height="40" rx="8" fill="#F57436" stroke="#F57436"/><text x="294" y="651" font-family="Inter, Arial, sans-serif" font-size="14" font-weight="600" fill="#FFFFFF">Open homework</text></g><g id="Your-progress"><rect x="996" y="474" width="412" height="345" rx="12" fill="#FFFFFF" stroke="#DDE1E5"/><text x="1020" y="518" font-family="Nunito, Inter, Arial, sans-serif" font-size="20" font-weight="700" fill="#222831">Your progress</text><rect x="1020" y="543" width="364" height="56" rx="8" fill="#F7F7F5" stroke="none"/><text x="1036" y="578" font-family="Nunito, Inter, Arial, sans-serif" font-size="19" font-weight="700" fill="#F57436">6-day streak</text><rect x="1020" y="611" width="364" height="56" rx="8" fill="#F7F7F5" stroke="none"/><text x="1036" y="646" font-family="Nunito, Inter, Arial, sans-serif" font-size="19" font-weight="700" fill="#222831">8 lessons completed</text><rect x="1020" y="679" width="364" height="56" rx="8" fill="#F7F7F5" stroke="none"/><text x="1036" y="714" font-family="Nunito, Inter, Arial, sans-serif" font-size="19" font-weight="700" fill="#222831">3 misconceptions fixed</text><rect x="1020" y="755" width="151.8" height="40" rx="8" fill="#F57436" stroke="#F57436"/><text x="1034" y="779" font-family="Inter, Arial, sans-serif" font-size="14" font-weight="600" fill="#FFFFFF">View progress</text></g><g id="Today-s-schedule"><rect x="256" y="715" width="716" height="255" rx="12" fill="#FFFFFF" stroke="#DDE1E5"/><text x="280" y="759" font-family="Nunito, Inter, Arial, sans-serif" font-size="20" font-weight="700" fill="#222831">Today’s schedule</text><text x="280" y="800" font-family="Inter, Arial, sans-serif" font-size="16" font-weight="400" fill="#657080">09:00 Mathematics</text><text x="280" y="838" font-family="Inter, Arial, sans-serif" font-size="16" font-weight="400" fill="#657080">10:30 Physics</text><text x="280" y="876" font-family="Inter, Arial, sans-serif" font-size="16" font-weight="400" fill="#657080">13:00 English</text><rect x="280" y="906" width="151.8" height="40" rx="8" fill="#F57436" stroke="#F57436"/><text x="294" y="930" font-family="Inter, Arial, sans-serif" font-size="14" font-weight="600" fill="#FFFFFF">Open schedule</text></g><g id="Handoff-label"><text x="256" y="1020" font-family="Inter, Arial, sans-serif" font-size="12" font-weight="400" fill="#657080">Rafiqi / S01 / Source: home / Wireframe · example data</text></g><a xlink:href="S01.svg"><rect x="16" y="110" width="192" height="44" fill="#FFFFFF" fill-opacity="0"><title>Today</title></rect></a><a xlink:href="S02.svg"><rect x="16" y="168" width="192" height="44" fill="#FFFFFF" fill-opacity="0"><title>Learn</title></rect></a><a xlink:href="S08.svg"><rect x="16" y="226" width="192" height="44" fill="#FFFFFF" fill-opacity="0"><title>Homework</title></rect></a><a xlink:href="S12.svg"><rect x="16" y="284" width="192" height="44" fill="#FFFFFF" fill-opacity="0"><title>My progress</title></rect></a><a xlink:href="S10.svg"><rect x="16" y="342" width="192" height="44" fill="#FFFFFF" fill-opacity="0"><title>Resources</title></rect></a><a xlink:href="S09.svg"><rect x="16" y="400" width="192" height="44" fill="#FFFFFF" fill-opacity="0"><title>Connect</title></rect></a><a xlink:href="S11.svg"><rect x="16" y="458" width="192" height="44" fill="#FFFFFF" fill-opacity="0"><title>My Rafiqi</title></rect></a><a xlink:href="S04.svg"><rect x="280" y="386" width="151.8" height="40" fill="#FFFFFF" fill-opacity="0"><title>Start warm-up</title></rect></a><a xlink:href="S05.svg"><rect x="1020" y="386" width="108.8" height="40" fill="#FFFFFF" fill-opacity="0"><title>Continue</title></rect></a><a xlink:href="S08.svg"><rect x="280" y="627" width="151.8" height="40" fill="#FFFFFF" fill-opacity="0"><title>Open homework</title></rect></a><a xlink:href="S12.svg"><rect x="1020" y="755" width="151.8" height="40" fill="#FFFFFF" fill-opacity="0"><title>View progress</title></rect></a><a xlink:href="S02.svg"><rect x="280" y="906" width="151.8" height="40" fill="#FFFFFF" fill-opacity="0"><title>Open schedule</title></rect></a></svg>