<svg xmlns="http://www.w3.org/2000/svg" xmlns:xlink="http://www.w3.org/1999/xlink" width="1440" height="989" viewBox="0 0 1440 989"><title>S02 Learning map and schedule</title><g id="Shell"><rect x="0" y="0" width="1440" height="989" rx="0" fill="#F7F7F5" stroke="#F7F7F5"/><rect x="0" y="0" width="224" height="989" rx="0" fill="#FFFFFF" stroke="#DDE1E5"/><rect x="224" y="0" width="1216" height="80" rx="0" fill="#FFFFFF" stroke="#DDE1E5"/><text x="28" y="55" font-family="Nunito, Inter, Arial, sans-serif" font-size="30" font-weight="800" fill="#F57436">Rafiqi</text><rect x="256" y="20" width="560" height="40" rx="8" fill="#F7F7F5" stroke="#DDE1E5"/><text x="272" y="44" font-family="Inter, Arial, sans-serif" font-size="14" font-weight="400" fill="#657080">Search lessons, resources, conversations…</text><text x="1080" y="45" font-family="Inter, Arial, sans-serif" font-size="14" font-weight="600" fill="#222831">AR / EN</text><text x="1260" y="42" font-family="Inter, Arial, sans-serif" font-size="16" font-weight="600" fill="#222831">Ahmed</text><text x="1260" y="60" font-family="Inter, Arial, sans-serif" font-size="12" font-weight="400" fill="#657080">Grade 10</text></g><g id="Navigation---Today"><rect x="30" y="121" width="16" height="16" rx="4" fill="#FFFFFF" stroke="#657080"/><text x="62" y="134" font-family="Inter, Arial, sans-serif" font-size="16" font-weight="400" fill="#222831">Today</text></g><g id="Navigation---Learn"><rect x="16" y="168" width="192" height="44" rx="8" fill="#FFF0E7" stroke="#FFF0E7"/><rect x="30" y="179" width="16" height="16" rx="4" fill="#F57436" stroke="#F57436"/><text x="62" y="192" font-family="Nunito, Inter, Arial, sans-serif" font-size="16" font-weight="700" fill="#F57436">Learn</text></g><g id="Navigation---Homework"><rect x="30" y="237" width="16" height="16" rx="4" fill="#FFFFFF" stroke="#657080"/><text x="62" y="250" font-family="Inter, Arial, sans-serif" font-size="16" font-weight="400" fill="#222831">Homework</text></g><g id="Navigation---My-progress"><rect x="30" y="295" width="16" height="16" rx="4" fill="#FFFFFF" stroke="#657080"/><text x="62" y="308" font-family="Inter, Arial, sans-serif" font-size="16" font-weight="400" fill="#222831">My progress</text></g><g id="Navigation---Resources"><rect x="30" y="353" width="16" height="16" rx="4" fill="#FFFFFF" stroke="#657080"/><text x="62" y="366" font-family="Inter, Arial, sans-serif" font-size="16" font-weight="400" fill="#222831">Resources</text></g><g id="Navigation---Connect"><rect x="30" y="411" width="16" height="16" rx="4" fill="#FFFFFF" stroke="#657080"/><text x="62" y="424" font-family="Inter, Arial, sans-serif" font-size="16" font-weight="400" fill="#222831">Connect</text></g><g id="Navigation---My-Rafiqi"><rect x="30" y="469" width="16" height="16" rx="4" fill="#FFFFFF" stroke="#657080"/><text x="62" y="482" font-family="Inter, Arial, sans-serif" font-size="16" font-weight="400" fill="#222831">My Rafiqi</text></g><g id="Page-heading"><text x="256" y="124" font-family="Inter, Arial, sans-serif" font-size="12" font-weight="600" fill="#657080">S02 / STUDENT</text><text x="256" y="170" font-family="Nunito, Inter, Arial, sans-serif" font-size="32" font-weight="800" fill="#222831">Learning map and schedule</text><text x="256" y="201" font-family="Inter, Arial, sans-serif" font-size="16" font-weight="400" fill="#657080">Your curriculum and calendar in one place.</text></g><g id="Page-tabs"><rect x="256" y="233" width="143.2" height="40" rx="8" fill="#F57436" stroke="#F57436"/><text x="270" y="257" font-family="Inter, Arial, sans-serif" font-size="14" font-weight="600" fill="#FFFFFF">Learning map</text><rect x="407.2" y="233" width="108.8" height="40" rx="8" fill="#FFFFFF" stroke="#DDE1E5"/><text x="421.2" y="257" font-family="Inter, Arial, sans-serif" font-size="14" font-weight="600" fill="#222831">Schedule</text></g><g id="Subjects"><rect x="256" y="299" width="716" height="369" rx="12" fill="#FFFFFF" stroke="#DDE1E5"/><text x="280" y="343" font-family="Nunito, Inter, Arial, sans-serif" font-size="20" font-weight="700" fill="#222831">Subjects</text><text x="280" y="384" font-family="Inter, Arial, sans-serif" font-size="16" font-weight="400" fill="#657080">Physics</text><text x="280" y="422" font-family="Inter, Arial, sans-serif" font-size="16" font-weight="400" fill="#657080">Forces and motion</text><text x="280" y="460" font-family="Inter, Arial, sans-serif" font-size="16" font-weight="400" fill="#657080">First Law · Completed</text><text x="280" y="498" font-family="Inter, Arial, sans-serif" font-size="16" font-weight="400" fill="#657080">Second Law · Completed</text><text x="280" y="536" font-family="Inter, Arial, sans-serif" font-size="16" font-weight="400" fill="#657080">Third Law · Current</text><text x="280" y="574" font-family="Inter, Arial, sans-serif" font-size="16" font-weight="400" fill="#657080">Mathematics · Not started</text><rect x="280" y="604" width="134.6" height="40" rx="8" fill="#F57436" stroke="#F57436"/><text x="294" y="628" font-family="Inter, Arial, sans-serif" font-size="14" font-weight="600" fill="#FFFFFF">Open lesson</text></g><g id="Schedule"><rect x="996" y="299" width="412" height="349" rx="12" fill="#FFFFFF" stroke="#DDE1E5"/><text x="1020" y="343" font-family="Nunito, Inter, Arial, sans-serif" font-size="20" font-weight="700" fill="#222831">Schedule</text><text x="1020" y="381" font-family="Inter, Arial, sans-serif" font-size="13" font-weight="600" fill="#222831">Time Mon Tue Wed Thu Fri</text><rect x="1020" y="400" width="364" height="1" rx="0" fill="#DDE1E5" stroke="#DDE1E5"/><rect x="1020" y="448" width="364" height="1" rx="0" fill="#DDE1E5" stroke="#DDE1E5"/><rect x="1020" y="496" width="364" height="1" rx="0" fill="#DDE1E5" stroke="#DDE1E5"/><rect x="1020" y="544" width="364" height="1" rx="0" fill="#DDE1E5" stroke="#DDE1E5"/><text x="1020" y="428" font-family="Inter, Arial, sans-serif" font-size="16" font-weight="400" fill="#657080">09:00 Mathematics</text><text x="1020" y="466" font-family="Inter, Arial, sans-serif" font-size="16" font-weight="400" fill="#657080">10:30 Physics</text><text x="1020" y="504" font-family="Inter, Arial, sans-serif" font-size="16" font-weight="400" fill="#657080">16:00 Personal study</text><rect x="1020" y="534" width="90" height="40" rx="8" fill="#F57436" stroke="#F57436"/><text x="1034" y="558" font-family="Inter, Arial, sans-serif" font-size="14" font-weight="600" fill="#FFFFFF">Day</text><rect x="1120" y="534" width="90" height="40" rx="8" fill="#FFFFFF" stroke="#DDE1E5"/><text x="1134" y="558" font-family="Inter, Arial, sans-serif" font-size="14" font-weight="600" fill="#222831">Week</text><rect x="1220" y="534" width="90" height="40" rx="8" fill="#FFFFFF" stroke="#DDE1E5"/><text x="1234" y="558" font-family="Inter, Arial, sans-serif" font-size="14" font-weight="600" fill="#222831">Month</text><rect x="1020" y="584" width="134.6" height="40" rx="8" fill="#FFFFFF" stroke="#DDE1E5"/><text x="1034" y="608" font-family="Inter, Arial, sans-serif" font-size="14" font-weight="600" fill="#222831">Choose date</text></g><g id="Personal-events"><rect x="256" y="692" width="716" height="217" rx="12" fill="#FFFFFF" stroke="#DDE1E5"/><text x="280" y="736" font-family="Nunito, Inter, Arial, sans-serif" font-size="20" font-weight="700" fill="#222831">Personal events</text><text x="280" y="777" font-family="Inter, Arial, sans-serif" font-size="16" font-weight="400" fill="#657080">Study for Physics quiz</text><text x="280" y="815" font-family="Inter, Arial, sans-serif" font-size="16" font-weight="400" fill="#657080">Repeat weekly · Wednesday</text><rect x="280" y="845" width="117.39999999999999" height="40" rx="8" fill="#F57436" stroke="#F57436"/><text x="294" y="869" font-family="Inter, Arial, sans-serif" font-size="14" font-weight="600" fill="#FFFFFF">Add event</text><rect x="407.4" y="845" width="143.2" height="40" rx="8" fill="#FFFFFF" stroke="#DDE1E5"/><text x="421.4" y="869" font-family="Inter, Arial, sans-serif" font-size="14" font-weight="600" fill="#222831">Delete event</text></g><g id="Selected-lesson"><rect x="996" y="672" width="412" height="217" rx="12" fill="#FFFFFF" stroke="#DDE1E5"/><text x="1020" y="716" font-family="Nunito, Inter, Arial, sans-serif" font-size="20" font-weight="700" fill="#222831">Selected lesson</text><text x="1020" y="757" font-family="Inter, Arial, sans-serif" font-size="16" font-weight="400" fill="#657080">Newton’s Third Law</text><text x="1020" y="795" font-family="Inter, Arial, sans-serif" font-size="16" font-weight="400" fill="#657080">Materials, summary and class notes</text><rect x="1020" y="825" width="134.6" height="40" rx="8" fill="#F57436" stroke="#F57436"/><text x="1034" y="849" font-family="Inter, Arial, sans-serif" font-size="14" font-weight="600" fill="#FFFFFF">Open lesson</text><rect x="1164.6" y="825" width="126" height="40" rx="8" fill="#FFFFFF" stroke="#DDE1E5"/><text x="1178.6" y="849" font-family="Inter, Arial, sans-serif" font-size="14" font-weight="600" fill="#222831">Study Cave</text></g><g id="Handoff-label"><text x="256" y="959" font-family="Inter, Arial, sans-serif" font-size="12" font-weight="400" fill="#657080">Rafiqi / S02 / Source: map / Wireframe · example data</text></g><a xlink:href="S01.svg"><rect x="16" y="110" width="192" height="44" fill="#FFFFFF" fill-opacity="0"><title>Today</title></rect></a><a xlink:href="S02.svg"><rect x="16" y="168" width="192" height="44" fill="#FFFFFF" fill-opacity="0"><title>Learn</title></rect></a><a xlink:href="S08.svg"><rect x="16" y="226" width="192" height="44" fill="#FFFFFF" fill-opacity="0"><title>Homework</title></rect></a><a xlink:href="S12.svg"><rect x="16" y="284" width="192" height="44" fill="#FFFFFF" fill-opacity="0"><title>My progress</title></rect></a><a xlink:href="S10.svg"><rect x="16" y="342" width="192" height="44" fill="#FFFFFF" fill-opacity="0"><title>Resources</title></rect></a><a xlink:href="S09.svg"><rect x="16" y="400" width="192" height="44" fill="#FFFFFF" fill-opacity="0"><title>Connect</title></rect></a><a xlink:href="S11.svg"><rect x="16" y="458" width="192" height="44" fill="#FFFFFF" fill-opacity="0"><title>My Rafiqi</title></rect></a><a xlink:href="S03.svg"><rect x="280" y="604" width="134.6" height="40" fill="#FFFFFF" fill-opacity="0"><title>Open lesson</title></rect></a><a xlink:href="S14.svg"><rect x="280" y="845" width="117.39999999999999" height="40" fill="#FFFFFF" fill-opacity="0"><title>Add event</title></rect></a><a xlink:href="S03.svg"><rect x="1020" y="825" width="134.6" height="40" fill="#FFFFFF" fill-opacity="0"><title>Open lesson</title></rect></a><a xlink:href="S05.svg"><rect x="1164.6" y="825" width="126" height="40" fill="#FFFFFF" fill-opacity="0"><title>Study Cave</title></rect></a></svg>