<svg xmlns="http://www.w3.org/2000/svg" xmlns:xlink="http://www.w3.org/1999/xlink" width="1440" height="988" viewBox="0 0 1440 988"><title>S06 Study Cave · During class</title><g id="Shell"><rect x="0" y="0" width="1440" height="988" rx="0" fill="#F7F7F5" stroke="#F7F7F5"/><rect x="0" y="0" width="224" height="988" rx="0" fill="#FFFFFF" stroke="#DDE1E5"/><rect x="224" y="0" width="1216" height="80" rx="0" fill="#FFFFFF" stroke="#DDE1E5"/><text x="28" y="55" font-family="Nunito, Inter, Arial, sans-serif" font-size="30" font-weight="800" fill="#F57436">Rafiqi</text><rect x="256" y="20" width="560" height="40" rx="8" fill="#F7F7F5" stroke="#DDE1E5"/><text x="272" y="44" font-family="Inter, Arial, sans-serif" font-size="14" font-weight="400" fill="#657080">Search lessons, resources, conversations…</text><text x="1080" y="45" font-family="Inter, Arial, sans-serif" font-size="14" font-weight="600" fill="#222831">AR / EN</text><text x="1260" y="42" font-family="Inter, Arial, sans-serif" font-size="16" font-weight="600" fill="#222831">Ahmed</text><text x="1260" y="60" font-family="Inter, Arial, sans-serif" font-size="12" font-weight="400" fill="#657080">Grade 10</text></g><g id="Navigation---Today"><rect x="30" y="121" width="16" height="16" rx="4" fill="#FFFFFF" stroke="#657080"/><text x="62" y="134" font-family="Inter, Arial, sans-serif" font-size="16" font-weight="400" fill="#222831">Today</text></g><g id="Navigation---Learn"><rect x="16" y="168" width="192" height="44" rx="8" fill="#FFF0E7" stroke="#FFF0E7"/><rect x="30" y="179" width="16" height="16" rx="4" fill="#F57436" stroke="#F57436"/><text x="62" y="192" font-family="Nunito, Inter, Arial, sans-serif" font-size="16" font-weight="700" fill="#F57436">Learn</text></g><g id="Navigation---Homework"><rect x="30" y="237" width="16" height="16" rx="4" fill="#FFFFFF" stroke="#657080"/><text x="62" y="250" font-family="Inter, Arial, sans-serif" font-size="16" font-weight="400" fill="#222831">Homework</text></g><g id="Navigation---My-progress"><rect x="30" y="295" width="16" height="16" rx="4" fill="#FFFFFF" stroke="#657080"/><text x="62" y="308" font-family="Inter, Arial, sans-serif" font-size="16" font-weight="400" fill="#222831">My progress</text></g><g id="Navigation---Resources"><rect x="30" y="353" width="16" height="16" rx="4" fill="#FFFFFF" stroke="#657080"/><text x="62" y="366" font-family="Inter, Arial, sans-serif" font-size="16" font-weight="400" fill="#222831">Resources</text></g><g id="Navigation---Connect"><rect x="30" y="411" width="16" height="16" rx="4" fill="#FFFFFF" stroke="#657080"/><text x="62" y="424" font-family="Inter, Arial, sans-serif" font-size="16" font-weight="400" fill="#222831">Connect</text></g><g id="Navigation---My-Rafiqi"><rect x="30" y="469" width="16" height="16" rx="4" fill="#FFFFFF" stroke="#657080"/><text x="62" y="482" font-family="Inter, Arial, sans-serif" font-size="16" font-weight="400" fill="#222831">My Rafiqi</text></g><g id="Page-heading"><text x="256" y="124" font-family="Inter, Arial, sans-serif" font-size="12" font-weight="600" fill="#657080">S06 / STUDENT</text><text x="256" y="170" font-family="Nunito, Inter, Arial, sans-serif" font-size="32" font-weight="800" fill="#222831">Study Cave · During class</text><text x="256" y="201" font-family="Inter, Arial, sans-serif" font-size="16" font-weight="400" fill="#657080">Newton’s Third Law · Learn with your class.</text></g><g id="Page-tabs"><rect x="256" y="233" width="143.2" height="40" rx="8" fill="#FFFFFF" stroke="#DDE1E5"/><text x="270" y="257" font-family="Inter, Arial, sans-serif" font-size="14" font-weight="600" fill="#222831">Before class</text><rect x="407.2" y="233" width="143.2" height="40" rx="8" fill="#F57436" stroke="#F57436"/><text x="421.2" y="257" font-family="Inter, Arial, sans-serif" font-size="14" font-weight="600" fill="#FFFFFF">During class</text><rect x="558.4" y="233" width="212" height="40" rx="8" fill="#FFFFFF" stroke="#DDE1E5"/><text x="572.4" y="257" font-family="Inter, Arial, sans-serif" font-size="14" font-weight="600" fill="#222831">After class · Locked</text><rect x="778.4" y="233" width="186.2" height="40" rx="8" fill="#FFFFFF" stroke="#DDE1E5"/><text x="792.4" y="257" font-family="Inter, Arial, sans-serif" font-size="14" font-weight="600" fill="#222831">Homework · Locked</text></g><g id="Your-notes"><rect x="256" y="299" width="716" height="365" rx="12" fill="#FFFFFF" stroke="#DDE1E5"/><text x="280" y="343" font-family="Nunito, Inter, Arial, sans-serif" font-size="20" font-weight="700" fill="#222831">Your notes</text><text x="280" y="382" font-family="Inter, Arial, sans-serif" font-size="14" font-weight="500" fill="#657080">Take notes from today’s lesson</text><rect x="280" y="392" width="668" height="104" rx="6" fill="#F7F7F5" stroke="#DDE1E5"/><text x="280" y="527" font-family="Inter, Arial, sans-serif" font-size="14" font-weight="500" fill="#657080">Highlight key points</text><rect x="280" y="537" width="668" height="38" rx="6" fill="#F7F7F5" stroke="#DDE1E5"/><rect x="280" y="600" width="169" height="40" rx="8" fill="#F57436" stroke="#F57436"/><text x="294" y="624" font-family="Inter, Arial, sans-serif" font-size="14" font-weight="600" fill="#FFFFFF">Highlight these</text></g><g id="Your-questions"><rect x="996" y="299" width="412" height="299" rx="12" fill="#FFFFFF" stroke="#DDE1E5"/><text x="1020" y="343" font-family="Nunito, Inter, Arial, sans-serif" font-size="20" font-weight="700" fill="#222831">Your questions</text><text x="1020" y="382" font-family="Inter, Arial, sans-serif" font-size="14" font-weight="500" fill="#657080">Ask something about the lesson</text><rect x="1020" y="392" width="364" height="38" rx="6" fill="#F7F7F5" stroke="#DDE1E5"/><text x="1020" y="461" font-family="Inter, Arial, sans-serif" font-size="14" font-weight="500" fill="#657080">Review questions already sent</text><rect x="1020" y="471" width="364" height="38" rx="6" fill="#F7F7F5" stroke="#DDE1E5"/><rect x="1020" y="534" width="212" height="40" rx="8" fill="#F57436" stroke="#F57436"/><text x="1034" y="558" font-family="Inter, Arial, sans-serif" font-size="14" font-weight="600" fill="#FFFFFF">Add teacher question</text></g><g id="What-Rafiqi-noticed"><rect x="256" y="688" width="716" height="169" rx="12" fill="#FFFFFF" stroke="#DDE1E5"/><text x="280" y="732" font-family="Nunito, Inter, Arial, sans-serif" font-size="20" font-weight="700" fill="#222831">What Rafiqi noticed</text><text x="280" y="773" font-family="Inter, Arial, sans-serif" font-size="16" font-weight="400" fill="#657080">You connected force pairs to the wall example</text><text x="280" y="811" font-family="Inter, Arial, sans-serif" font-size="16" font-weight="400" fill="#657080">Revisit: equal force does not mean equal acceleration</text></g><g id="Matching-your-notes"><rect x="996" y="622" width="412" height="286" rx="12" fill="#F1EDFC" stroke="#DDE1E5"/><text x="1020" y="666" font-family="Nunito, Inter, Arial, sans-serif" font-size="20" font-weight="700" fill="#222831">Matching your notes</text><rect x="1020" y="691" width="364" height="72" rx="10" fill="#E7E0F8" stroke="none"/><text x="1034" y="720" font-family="Inter, Arial, sans-serif" font-size="16" font-weight="400" fill="#222831">Rafiqi is matching your notes to the</text><text x="1034" y="743" font-family="Inter, Arial, sans-serif" font-size="16" font-weight="400" fill="#222831">lesson.</text><rect x="1020" y="775" width="364" height="49" rx="10" fill="#FFFFFF" stroke="none"/><text x="1034" y="804" font-family="Inter, Arial, sans-serif" font-size="16" font-weight="400" fill="#222831">Review a suggested connection.</text><rect x="1020" y="844" width="126" height="40" rx="8" fill="#F57436" stroke="#F57436"/><text x="1034" y="868" font-family="Inter, Arial, sans-serif" font-size="14" font-weight="600" fill="#FFFFFF">Ask Rafiqi</text><rect x="1156" y="844" width="134.6" height="40" rx="8" fill="#FFFFFF" stroke="#DDE1E5"/><text x="1170" y="868" font-family="Inter, Arial, sans-serif" font-size="14" font-weight="600" fill="#222831">After class</text></g><g id="Handoff-label"><text x="256" y="958" font-family="Inter, Arial, sans-serif" font-size="12" font-weight="400" fill="#657080">Rafiqi / S06 / Source: study / Wireframe · example data</text></g><a xlink:href="S01.svg"><rect x="16" y="110" width="192" height="44" fill="#FFFFFF" fill-opacity="0"><title>Today</title></rect></a><a xlink:href="S02.svg"><rect x="16" y="168" width="192" height="44" fill="#FFFFFF" fill-opacity="0"><title>Learn</title></rect></a><a xlink:href="S08.svg"><rect x="16" y="226" width="192" height="44" fill="#FFFFFF" fill-opacity="0"><title>Homework</title></rect></a><a xlink:href="S12.svg"><rect x="16" y="284" width="192" height="44" fill="#FFFFFF" fill-opacity="0"><title>My progress</title></rect></a><a xlink:href="S10.svg"><rect x="16" y="342" width="192" height="44" fill="#FFFFFF" fill-opacity="0"><title>Resources</title></rect></a><a xlink:href="S09.svg"><rect x="16" y="400" width="192" height="44" fill="#FFFFFF" fill-opacity="0"><title>Connect</title></rect></a><a xlink:href="S11.svg"><rect x="16" y="458" width="192" height="44" fill="#FFFFFF" fill-opacity="0"><title>My Rafiqi</title></rect></a><a xlink:href="S05.svg"><rect x="256" y="233" width="143.2" height="40" fill="#FFFFFF" fill-opacity="0"><title>Before class</title></rect></a><a xlink:href="S06.svg"><rect x="407.2" y="233" width="143.2" height="40" fill="#FFFFFF" fill-opacity="0"><title>During class</title></rect></a><a xlink:href="S07.svg"><rect x="1156" y="844" width="134.6" height="40" fill="#FFFFFF" fill-opacity="0"><title>After class</title></rect></a></svg>