<svg xmlns="http://www.w3.org/2000/svg" xmlns:xlink="http://www.w3.org/1999/xlink" width="1440" height="980" viewBox="0 0 1440 980"><title>S07 Study Cave · After class</title><g id="Shell"><rect x="0" y="0" width="1440" height="980" rx="0" fill="#F7F7F5" stroke="#F7F7F5"/><rect x="0" y="0" width="224" height="980" rx="0" fill="#FFFFFF" stroke="#DDE1E5"/><rect x="224" y="0" width="1216" height="80" rx="0" fill="#FFFFFF" stroke="#DDE1E5"/><text x="28" y="55" font-family="Nunito, Inter, Arial, sans-serif" font-size="30" font-weight="800" fill="#F57436">Rafiqi</text><rect x="256" y="20" width="560" height="40" rx="8" fill="#F7F7F5" stroke="#DDE1E5"/><text x="272" y="44" font-family="Inter, Arial, sans-serif" font-size="14" font-weight="400" fill="#657080">Search lessons, resources, conversations…</text><text x="1080" y="45" font-family="Inter, Arial, sans-serif" font-size="14" font-weight="600" fill="#222831">AR / EN</text><text x="1260" y="42" font-family="Inter, Arial, sans-serif" font-size="16" font-weight="600" fill="#222831">Ahmed</text><text x="1260" y="60" font-family="Inter, Arial, sans-serif" font-size="12" font-weight="400" fill="#657080">Grade 10</text></g><g id="Navigation---Today"><rect x="30" y="121" width="16" height="16" rx="4" fill="#FFFFFF" stroke="#657080"/><text x="62" y="134" font-family="Inter, Arial, sans-serif" font-size="16" font-weight="400" fill="#222831">Today</text></g><g id="Navigation---Learn"><rect x="16" y="168" width="192" height="44" rx="8" fill="#FFF0E7" stroke="#FFF0E7"/><rect x="30" y="179" width="16" height="16" rx="4" fill="#F57436" stroke="#F57436"/><text x="62" y="192" font-family="Nunito, Inter, Arial, sans-serif" font-size="16" font-weight="700" fill="#F57436">Learn</text></g><g id="Navigation---Homework"><rect x="30" y="237" width="16" height="16" rx="4" fill="#FFFFFF" stroke="#657080"/><text x="62" y="250" font-family="Inter, Arial, sans-serif" font-size="16" font-weight="400" fill="#222831">Homework</text></g><g id="Navigation---My-progress"><rect x="30" y="295" width="16" height="16" rx="4" fill="#FFFFFF" stroke="#657080"/><text x="62" y="308" font-family="Inter, Arial, sans-serif" font-size="16" font-weight="400" fill="#222831">My progress</text></g><g id="Navigation---Resources"><rect x="30" y="353" width="16" height="16" rx="4" fill="#FFFFFF" stroke="#657080"/><text x="62" y="366" font-family="Inter, Arial, sans-serif" font-size="16" font-weight="400" fill="#222831">Resources</text></g><g id="Navigation---Connect"><rect x="30" y="411" width="16" height="16" rx="4" fill="#FFFFFF" stroke="#657080"/><text x="62" y="424" font-family="Inter, Arial, sans-serif" font-size="16" font-weight="400" fill="#222831">Connect</text></g><g id="Navigation---My-Rafiqi"><rect x="30" y="469" width="16" height="16" rx="4" fill="#FFFFFF" stroke="#657080"/><text x="62" y="482" font-family="Inter, Arial, sans-serif" font-size="16" font-weight="400" fill="#222831">My Rafiqi</text></g><g id="Page-heading"><text x="256" y="124" font-family="Inter, Arial, sans-serif" font-size="12" font-weight="600" fill="#657080">S07 / STUDENT</text><text x="256" y="170" font-family="Nunito, Inter, Arial, sans-serif" font-size="32" font-weight="800" fill="#222831">Study Cave · After class</text><text x="256" y="201" font-family="Inter, Arial, sans-serif" font-size="16" font-weight="400" fill="#657080">Bring your learning together.</text></g><g id="Page-tabs"><rect x="256" y="233" width="143.2" height="40" rx="8" fill="#FFFFFF" stroke="#DDE1E5"/><text x="270" y="257" font-family="Inter, Arial, sans-serif" font-size="14" font-weight="600" fill="#222831">Before class</text><rect x="407.2" y="233" width="143.2" height="40" rx="8" fill="#FFFFFF" stroke="#DDE1E5"/><text x="421.2" y="257" font-family="Inter, Arial, sans-serif" font-size="14" font-weight="600" fill="#222831">During class</text><rect x="558.4" y="233" width="134.6" height="40" rx="8" fill="#F57436" stroke="#F57436"/><text x="572.4" y="257" font-family="Inter, Arial, sans-serif" font-size="14" font-weight="600" fill="#FFFFFF">After class</text><rect x="701" y="233" width="108.8" height="40" rx="8" fill="#FFFFFF" stroke="#DDE1E5"/><text x="715" y="257" font-family="Inter, Arial, sans-serif" font-size="14" font-weight="600" fill="#222831">Homework</text></g><g id="Lesson-summary"><rect x="256" y="299" width="716" height="293" rx="12" fill="#FFFFFF" stroke="#DDE1E5"/><text x="280" y="343" font-family="Nunito, Inter, Arial, sans-serif" font-size="20" font-weight="700" fill="#222831">Lesson summary</text><text x="280" y="384" font-family="Inter, Arial, sans-serif" font-size="16" font-weight="400" fill="#657080">Today’s objective</text><text x="280" y="422" font-family="Inter, Arial, sans-serif" font-size="16" font-weight="400" fill="#657080">Key points</text><text x="280" y="460" font-family="Inter, Arial, sans-serif" font-size="16" font-weight="400" fill="#657080">How we got there</text><text x="280" y="498" font-family="Inter, Arial, sans-serif" font-size="16" font-weight="400" fill="#657080">Check yourself</text><rect x="280" y="528" width="186.2" height="40" rx="8" fill="#F57436" stroke="#F57436"/><text x="294" y="552" font-family="Inter, Arial, sans-serif" font-size="14" font-weight="600" fill="#FFFFFF">Expand / collapse</text><rect x="476.2" y="528" width="177.6" height="40" rx="8" fill="#FFFFFF" stroke="#DDE1E5"/><text x="490.2" y="552" font-family="Inter, Arial, sans-serif" font-size="14" font-weight="600" fill="#222831">Download summary</text></g><g id="Your-class-record"><rect x="996" y="299" width="412" height="207" rx="12" fill="#FFFFFF" stroke="#DDE1E5"/><text x="1020" y="343" font-family="Nunito, Inter, Arial, sans-serif" font-size="20" font-weight="700" fill="#222831">Your class record</text><text x="1020" y="384" font-family="Inter, Arial, sans-serif" font-size="16" font-weight="400" fill="#657080">Questions and teacher answers</text><text x="1020" y="422" font-family="Inter, Arial, sans-serif" font-size="16" font-weight="400" fill="#657080">Your notes</text><text x="1020" y="460" font-family="Inter, Arial, sans-serif" font-size="16" font-weight="400" fill="#657080">What to revisit</text></g><g id="Materials"><rect x="256" y="616" width="716" height="255" rx="12" fill="#FFFFFF" stroke="#DDE1E5"/><text x="280" y="660" font-family="Nunito, Inter, Arial, sans-serif" font-size="20" font-weight="700" fill="#222831">Materials</text><rect x="280" y="687" width="17" height="17" rx="3" fill="#FFFFFF" stroke="#DDE1E5"/><text x="309" y="701" font-family="Inter, Arial, sans-serif" font-size="16" font-weight="400" fill="#222831">Required reading completed</text><rect x="280" y="725" width="17" height="17" rx="3" fill="#FFFFFF" stroke="#DDE1E5"/><text x="309" y="739" font-family="Inter, Arial, sans-serif" font-size="16" font-weight="400" fill="#222831">Diagram reviewed</text><rect x="280" y="763" width="17" height="17" rx="3" fill="#FFFFFF" stroke="#DDE1E5"/><text x="309" y="777" font-family="Inter, Arial, sans-serif" font-size="16" font-weight="400" fill="#222831">Practice remaining</text><rect x="280" y="807" width="151.8" height="40" rx="8" fill="#F57436" stroke="#F57436"/><text x="294" y="831" font-family="Inter, Arial, sans-serif" font-size="14" font-weight="600" fill="#FFFFFF">Open material</text><rect x="441.8" y="807" width="151.8" height="40" rx="8" fill="#FFFFFF" stroke="#DDE1E5"/><text x="455.8" y="831" font-family="Inter, Arial, sans-serif" font-size="14" font-weight="600" fill="#222831">Mark complete</text></g><g id="Next-step"><rect x="996" y="530" width="412" height="179" rx="12" fill="#FFFFFF" stroke="#DDE1E5"/><text x="1020" y="574" font-family="Nunito, Inter, Arial, sans-serif" font-size="20" font-weight="700" fill="#222831">Next step</text><text x="1020" y="615" font-family="Inter, Arial, sans-serif" font-size="16" font-weight="400" fill="#657080">Use what you learned in guided practice</text><rect x="1020" y="645" width="160.39999999999998" height="40" rx="8" fill="#F57436" stroke="#F57436"/><text x="1034" y="669" font-family="Inter, Arial, sans-serif" font-size="14" font-weight="600" fill="#FFFFFF">Go to homework</text></g><g id="Handoff-label"><text x="256" y="950" font-family="Inter, Arial, sans-serif" font-size="12" font-weight="400" fill="#657080">Rafiqi / S07 / Source: study / Wireframe · example data</text></g><a xlink:href="S01.svg"><rect x="16" y="110" width="192" height="44" fill="#FFFFFF" fill-opacity="0"><title>Today</title></rect></a><a xlink:href="S02.svg"><rect x="16" y="168" width="192" height="44" fill="#FFFFFF" fill-opacity="0"><title>Learn</title></rect></a><a xlink:href="S08.svg"><rect x="16" y="226" width="192" height="44" fill="#FFFFFF" fill-opacity="0"><title>Homework</title></rect></a><a xlink:href="S12.svg"><rect x="16" y="284" width="192" height="44" fill="#FFFFFF" fill-opacity="0"><title>My progress</title></rect></a><a xlink:href="S10.svg"><rect x="16" y="342" width="192" height="44" fill="#FFFFFF" fill-opacity="0"><title>Resources</title></rect></a><a xlink:href="S09.svg"><rect x="16" y="400" width="192" height="44" fill="#FFFFFF" fill-opacity="0"><title>Connect</title></rect></a><a xlink:href="S11.svg"><rect x="16" y="458" width="192" height="44" fill="#FFFFFF" fill-opacity="0"><title>My Rafiqi</title></rect></a><a xlink:href="S05.svg"><rect x="256" y="233" width="143.2" height="40" fill="#FFFFFF" fill-opacity="0"><title>Before class</title></rect></a><a xlink:href="S06.svg"><rect x="407.2" y="233" width="143.2" height="40" fill="#FFFFFF" fill-opacity="0"><title>During class</title></rect></a><a xlink:href="S07.svg"><rect x="558.4" y="233" width="134.6" height="40" fill="#FFFFFF" fill-opacity="0"><title>After class</title></rect></a><a xlink:href="S08.svg"><rect x="701" y="233" width="108.8" height="40" fill="#FFFFFF" fill-opacity="0"><title>Homework</title></rect></a><a xlink:href="S08.svg"><rect x="1020" y="645" width="160.39999999999998" height="40" fill="#FFFFFF" fill-opacity="0"><title>Go to homework</title></rect></a></svg>