<svg xmlns="http://www.w3.org/2000/svg" xmlns:xlink="http://www.w3.org/1999/xlink" width="1440" height="980" viewBox="0 0 1440 980"><title>S11 Rafiqi’s Cave</title><g id="Shell"><rect x="0" y="0" width="1440" height="980" rx="0" fill="#F7F7F5" stroke="#F7F7F5"/><rect x="0" y="0" width="224" height="980" rx="0" fill="#FFFFFF" stroke="#DDE1E5"/><rect x="224" y="0" width="1216" height="80" rx="0" fill="#FFFFFF" stroke="#DDE1E5"/><text x="28" y="55" font-family="Nunito, Inter, Arial, sans-serif" font-size="30" font-weight="800" fill="#F57436">Rafiqi</text><rect x="256" y="20" width="560" height="40" rx="8" fill="#F7F7F5" stroke="#DDE1E5"/><text x="272" y="44" font-family="Inter, Arial, sans-serif" font-size="14" font-weight="400" fill="#657080">Search lessons, resources, conversations…</text><text x="1080" y="45" font-family="Inter, Arial, sans-serif" font-size="14" font-weight="600" fill="#222831">AR / EN</text><text x="1260" y="42" font-family="Inter, Arial, sans-serif" font-size="16" font-weight="600" fill="#222831">Ahmed</text><text x="1260" y="60" font-family="Inter, Arial, sans-serif" font-size="12" font-weight="400" fill="#657080">Grade 10</text></g><g id="Navigation---Today"><rect x="30" y="121" width="16" height="16" rx="4" fill="#FFFFFF" stroke="#657080"/><text x="62" y="134" font-family="Inter, Arial, sans-serif" font-size="16" font-weight="400" fill="#222831">Today</text></g><g id="Navigation---Learn"><rect x="30" y="179" width="16" height="16" rx="4" fill="#FFFFFF" stroke="#657080"/><text x="62" y="192" font-family="Inter, Arial, sans-serif" font-size="16" font-weight="400" fill="#222831">Learn</text></g><g id="Navigation---Homework"><rect x="30" y="237" width="16" height="16" rx="4" fill="#FFFFFF" stroke="#657080"/><text x="62" y="250" font-family="Inter, Arial, sans-serif" font-size="16" font-weight="400" fill="#222831">Homework</text></g><g id="Navigation---My-progress"><rect x="30" y="295" width="16" height="16" rx="4" fill="#FFFFFF" stroke="#657080"/><text x="62" y="308" font-family="Inter, Arial, sans-serif" font-size="16" font-weight="400" fill="#222831">My progress</text></g><g id="Navigation---Resources"><rect x="30" y="353" width="16" height="16" rx="4" fill="#FFFFFF" stroke="#657080"/><text x="62" y="366" font-family="Inter, Arial, sans-serif" font-size="16" font-weight="400" fill="#222831">Resources</text></g><g id="Navigation---Connect"><rect x="30" y="411" width="16" height="16" rx="4" fill="#FFFFFF" stroke="#657080"/><text x="62" y="424" font-family="Inter, Arial, sans-serif" font-size="16" font-weight="400" fill="#222831">Connect</text></g><g id="Navigation---My-Rafiqi"><rect x="16" y="458" width="192" height="44" rx="8" fill="#FFF0E7" stroke="#FFF0E7"/><rect x="30" y="469" width="16" height="16" rx="4" fill="#F57436" stroke="#F57436"/><text x="62" y="482" font-family="Nunito, Inter, Arial, sans-serif" font-size="16" font-weight="700" fill="#F57436">My Rafiqi</text></g><g id="Page-heading"><text x="256" y="124" font-family="Inter, Arial, sans-serif" font-size="12" font-weight="600" fill="#657080">S11 / STUDENT</text><text x="256" y="170" font-family="Nunito, Inter, Arial, sans-serif" font-size="32" font-weight="800" fill="#222831">Rafiqi’s Cave</text><text x="256" y="201" font-family="Inter, Arial, sans-serif" font-size="16" font-weight="400" fill="#657080">The more I understand you, the better I can help.</text></g><g id="Talk-to-Rafiqi"><rect x="256" y="233" width="716" height="324" rx="12" fill="#F1EDFC" stroke="#DDE1E5"/><text x="280" y="277" font-family="Nunito, Inter, Arial, sans-serif" font-size="20" font-weight="700" fill="#222831">Talk to Rafiqi</text><rect x="280" y="302" width="668" height="49" rx="10" fill="#E7E0F8" stroke="none"/><text x="294" y="331" font-family="Inter, Arial, sans-serif" font-size="16" font-weight="400" fill="#222831">You: I learn better when I can picture an example.</text><rect x="280" y="363" width="668" height="49" rx="10" fill="#FFFFFF" stroke="none"/><text x="294" y="392" font-family="Inter, Arial, sans-serif" font-size="16" font-weight="400" fill="#222831">Rafiqi: Let’s use a diagram and something familiar.</text><rect x="280" y="424" width="668" height="49" rx="10" fill="#E7E0F8" stroke="none"/><text x="294" y="453" font-family="Inter, Arial, sans-serif" font-size="16" font-weight="400" fill="#222831">What would you like to explore?</text><rect x="280" y="493" width="91.6" height="40" rx="8" fill="#F57436" stroke="#F57436"/><text x="294" y="517" font-family="Inter, Arial, sans-serif" font-size="14" font-weight="600" fill="#FFFFFF">Attach</text><rect x="381.6" y="493" width="90" height="40" rx="8" fill="#FFFFFF" stroke="#DDE1E5"/><text x="395.6" y="517" font-family="Inter, Arial, sans-serif" font-size="14" font-weight="600" fill="#222831">Send</text></g><g id="Your-learning-model"><rect x="996" y="233" width="412" height="255" rx="12" fill="#FFFFFF" stroke="#DDE1E5"/><text x="1020" y="277" font-family="Nunito, Inter, Arial, sans-serif" font-size="20" font-weight="700" fill="#222831">Your learning model</text><text x="1020" y="318" font-family="Inter, Arial, sans-serif" font-size="16" font-weight="400" fill="#657080">Visual · example-driven</text><text x="1020" y="356" font-family="Inter, Arial, sans-serif" font-size="16" font-weight="400" fill="#657080">Strength: curiosity</text><text x="1020" y="394" font-family="Inter, Arial, sans-serif" font-size="16" font-weight="400" fill="#657080">Goal: explain ideas in your own words</text><rect x="1020" y="424" width="90" height="40" rx="8" fill="#F57436" stroke="#F57436"/><text x="1034" y="448" font-family="Inter, Arial, sans-serif" font-size="14" font-weight="600" fill="#FFFFFF">Edit</text><rect x="1120" y="424" width="100.19999999999999" height="40" rx="8" fill="#FFFFFF" stroke="#DDE1E5"/><text x="1134" y="448" font-family="Inter, Arial, sans-serif" font-size="14" font-weight="600" fill="#222831">Discuss</text><rect x="1230.2" y="424" width="134.6" height="40" rx="8" fill="#FFFFFF" stroke="#DDE1E5"/><text x="1244.2" y="448" font-family="Inter, Arial, sans-serif" font-size="14" font-weight="600" fill="#222831">Cycle model</text></g><g id="Not-quite-me-"><rect x="256" y="581" width="716" height="220" rx="12" fill="#FFFFFF" stroke="#DDE1E5"/><text x="280" y="625" font-family="Nunito, Inter, Arial, sans-serif" font-size="20" font-weight="700" fill="#222831">Not quite me?</text><text x="280" y="664" font-family="Inter, Arial, sans-serif" font-size="14" font-weight="500" fill="#657080">Tell Rafiqi what should change</text><rect x="280" y="674" width="668" height="38" rx="6" fill="#F7F7F5" stroke="#DDE1E5"/><rect x="280" y="737" width="90" height="40" rx="8" fill="#F57436" stroke="#F57436"/><text x="294" y="761" font-family="Inter, Arial, sans-serif" font-size="14" font-weight="600" fill="#FFFFFF">Save</text><rect x="380" y="737" width="100.19999999999999" height="40" rx="8" fill="#FFFFFF" stroke="#DDE1E5"/><text x="394" y="761" font-family="Inter, Arial, sans-serif" font-size="14" font-weight="600" fill="#222831">Discuss</text></g><g id="Handoff-label"><text x="256" y="950" font-family="Inter, Arial, sans-serif" font-size="12" font-weight="400" fill="#657080">Rafiqi / S11 / Source: teach / Wireframe · example data</text></g><a xlink:href="S01.svg"><rect x="16" y="110" width="192" height="44" fill="#FFFFFF" fill-opacity="0"><title>Today</title></rect></a><a xlink:href="S02.svg"><rect x="16" y="168" width="192" height="44" fill="#FFFFFF" fill-opacity="0"><title>Learn</title></rect></a><a xlink:href="S08.svg"><rect x="16" y="226" width="192" height="44" fill="#FFFFFF" fill-opacity="0"><title>Homework</title></rect></a><a xlink:href="S12.svg"><rect x="16" y="284" width="192" height="44" fill="#FFFFFF" fill-opacity="0"><title>My progress</title></rect></a><a xlink:href="S10.svg"><rect x="16" y="342" width="192" height="44" fill="#FFFFFF" fill-opacity="0"><title>Resources</title></rect></a><a xlink:href="S09.svg"><rect x="16" y="400" width="192" height="44" fill="#FFFFFF" fill-opacity="0"><title>Connect</title></rect></a><a xlink:href="S11.svg"><rect x="16" y="458" width="192" height="44" fill="#FFFFFF" fill-opacity="0"><title>My Rafiqi</title></rect></a><a xlink:href="S16.svg"><rect x="1020" y="424" width="90" height="40" fill="#FFFFFF" fill-opacity="0"><title>Edit</title></rect></a></svg>