<svg xmlns="http://www.w3.org/2000/svg" xmlns:xlink="http://www.w3.org/1999/xlink" width="1440" height="980" viewBox="0 0 1440 980"><title>S14 Add your own event</title><g id="Shell"><rect x="0" y="0" width="1440" height="980" rx="0" fill="#F7F7F5" stroke="#F7F7F5"/><rect x="0" y="0" width="224" height="980" rx="0" fill="#FFFFFF" stroke="#DDE1E5"/><rect x="224" y="0" width="1216" height="80" rx="0" fill="#FFFFFF" stroke="#DDE1E5"/><text x="28" y="55" font-family="Nunito, Inter, Arial, sans-serif" font-size="30" font-weight="800" fill="#F57436">Rafiqi</text><rect x="256" y="20" width="560" height="40" rx="8" fill="#F7F7F5" stroke="#DDE1E5"/><text x="272" y="44" font-family="Inter, Arial, sans-serif" font-size="14" font-weight="400" fill="#657080">Search lessons, resources, conversations…</text><text x="1080" y="45" font-family="Inter, Arial, sans-serif" font-size="14" font-weight="600" fill="#222831">AR / EN</text><text x="1260" y="42" font-family="Inter, Arial, sans-serif" font-size="16" font-weight="600" fill="#222831">Ahmed</text><text x="1260" y="60" font-family="Inter, Arial, sans-serif" font-size="12" font-weight="400" fill="#657080">Grade 10</text></g><g id="Navigation---Today"><rect x="16" y="110" width="192" height="44" rx="8" fill="#FFF0E7" stroke="#FFF0E7"/><rect x="30" y="121" width="16" height="16" rx="4" fill="#F57436" stroke="#F57436"/><text x="62" y="134" font-family="Nunito, Inter, Arial, sans-serif" font-size="16" font-weight="700" fill="#F57436">Today</text></g><g id="Navigation---Learn"><rect x="30" y="179" width="16" height="16" rx="4" fill="#FFFFFF" stroke="#657080"/><text x="62" y="192" font-family="Inter, Arial, sans-serif" font-size="16" font-weight="400" fill="#222831">Learn</text></g><g id="Navigation---Homework"><rect x="30" y="237" width="16" height="16" rx="4" fill="#FFFFFF" stroke="#657080"/><text x="62" y="250" font-family="Inter, Arial, sans-serif" font-size="16" font-weight="400" fill="#222831">Homework</text></g><g id="Navigation---My-progress"><rect x="30" y="295" width="16" height="16" rx="4" fill="#FFFFFF" stroke="#657080"/><text x="62" y="308" font-family="Inter, Arial, sans-serif" font-size="16" font-weight="400" fill="#222831">My progress</text></g><g id="Navigation---Resources"><rect x="30" y="353" width="16" height="16" rx="4" fill="#FFFFFF" stroke="#657080"/><text x="62" y="366" font-family="Inter, Arial, sans-serif" font-size="16" font-weight="400" fill="#222831">Resources</text></g><g id="Navigation---Connect"><rect x="30" y="411" width="16" height="16" rx="4" fill="#FFFFFF" stroke="#657080"/><text x="62" y="424" font-family="Inter, Arial, sans-serif" font-size="16" font-weight="400" fill="#222831">Connect</text></g><g id="Navigation---My-Rafiqi"><rect x="30" y="469" width="16" height="16" rx="4" fill="#FFFFFF" stroke="#657080"/><text x="62" y="482" font-family="Inter, Arial, sans-serif" font-size="16" font-weight="400" fill="#222831">My Rafiqi</text></g><g id="Page-heading"><text x="256" y="124" font-family="Inter, Arial, sans-serif" font-size="12" font-weight="600" fill="#657080">S14 / STUDENT</text><text x="256" y="170" font-family="Nunito, Inter, Arial, sans-serif" font-size="32" font-weight="800" fill="#222831">Add your own event</text><text x="256" y="201" font-family="Inter, Arial, sans-serif" font-size="16" font-weight="400" fill="#657080">Personal calendar event dialog.</text></g><g id="Event-details"><rect x="256" y="233" width="716" height="409" rx="12" fill="#FFFFFF" stroke="#DDE1E5"/><text x="280" y="277" font-family="Nunito, Inter, Arial, sans-serif" font-size="20" font-weight="700" fill="#222831">Event details</text><text x="280" y="316" font-family="Inter, Arial, sans-serif" font-size="14" font-weight="500" fill="#657080">Title</text><rect x="280" y="326" width="668" height="38" rx="6" fill="#F7F7F5" stroke="#DDE1E5"/><text x="280" y="395" font-family="Inter, Arial, sans-serif" font-size="14" font-weight="500" fill="#657080">Date</text><rect x="280" y="405" width="668" height="38" rx="6" fill="#F7F7F5" stroke="#DDE1E5"/><text x="280" y="474" font-family="Inter, Arial, sans-serif" font-size="14" font-weight="500" fill="#657080">Start time</text><rect x="280" y="484" width="668" height="38" rx="6" fill="#F7F7F5" stroke="#DDE1E5"/><text x="280" y="553" font-family="Inter, Arial, sans-serif" font-size="14" font-weight="500" fill="#657080">Duration</text><rect x="280" y="563" width="668" height="38" rx="6" fill="#F7F7F5" stroke="#DDE1E5"/></g><g id="Repeat"><rect x="996" y="233" width="412" height="378" rx="12" fill="#FFFFFF" stroke="#DDE1E5"/><text x="1020" y="277" font-family="Nunito, Inter, Arial, sans-serif" font-size="20" font-weight="700" fill="#222831">Repeat</text><text x="1020" y="316" font-family="Inter, Arial, sans-serif" font-size="14" font-weight="500" fill="#657080">None / Weekly</text><rect x="1020" y="326" width="364" height="38" rx="6" fill="#F7F7F5" stroke="#DDE1E5"/><text x="1020" y="395" font-family="Inter, Arial, sans-serif" font-size="14" font-weight="500" fill="#657080">Sun Mon Tue Wed Thu Fri Sat</text><rect x="1020" y="405" width="364" height="38" rx="6" fill="#F7F7F5" stroke="#DDE1E5"/><text x="1020" y="474" font-family="Inter, Arial, sans-serif" font-size="14" font-weight="500" fill="#657080">Repeat until</text><rect x="1020" y="484" width="364" height="38" rx="6" fill="#F7F7F5" stroke="#DDE1E5"/><rect x="1020" y="547" width="100.19999999999999" height="40" rx="8" fill="#F57436" stroke="#F57436"/><text x="1034" y="571" font-family="Inter, Arial, sans-serif" font-size="14" font-weight="600" fill="#FFFFFF">Preview</text></g><g id="Preview-and-save"><rect x="256" y="666" width="716" height="179" rx="12" fill="#FFFFFF" stroke="#DDE1E5"/><text x="280" y="710" font-family="Nunito, Inter, Arial, sans-serif" font-size="20" font-weight="700" fill="#222831">Preview and save</text><text x="280" y="751" font-family="Inter, Arial, sans-serif" font-size="16" font-weight="400" fill="#657080">See the occurrence dates before adding</text><rect x="280" y="781" width="194.79999999999998" height="40" rx="8" fill="#F57436" stroke="#F57436"/><text x="294" y="805" font-family="Inter, Arial, sans-serif" font-size="14" font-weight="600" fill="#FFFFFF">Add to my calendar</text><rect x="484.79999999999995" y="781" width="91.6" height="40" rx="8" fill="#FFFFFF" stroke="#DDE1E5"/><text x="498.79999999999995" y="805" font-family="Inter, Arial, sans-serif" font-size="14" font-weight="600" fill="#222831">Cancel</text></g><g id="Delete-event"><rect x="996" y="635" width="412" height="202" rx="12" fill="#FFFFFF" stroke="#DDE1E5"/><text x="1020" y="679" font-family="Nunito, Inter, Arial, sans-serif" font-size="20" font-weight="700" fill="#222831">Delete event</text><text x="1020" y="720" font-family="Inter, Arial, sans-serif" font-size="16" font-weight="400" fill="#657080">Confirm deletion of the selected</text><text x="1020" y="743" font-family="Inter, Arial, sans-serif" font-size="16" font-weight="400" fill="#657080">personal event</text><rect x="1020" y="773" width="91.6" height="40" rx="8" fill="#F57436" stroke="#F57436"/><text x="1034" y="797" font-family="Inter, Arial, sans-serif" font-size="14" font-weight="600" fill="#FFFFFF">Cancel</text><rect x="1121.6" y="773" width="91.6" height="40" rx="8" fill="#FFFFFF" stroke="#DDE1E5"/><text x="1135.6" y="797" font-family="Inter, Arial, sans-serif" font-size="14" font-weight="600" fill="#222831">Delete</text></g><g id="Handoff-label"><text x="256" y="950" font-family="Inter, Arial, sans-serif" font-size="12" font-weight="400" fill="#657080">Rafiqi / S14 / Source: map / Wireframe · example data</text></g><a xlink:href="S01.svg"><rect x="16" y="110" width="192" height="44" fill="#FFFFFF" fill-opacity="0"><title>Today</title></rect></a><a xlink:href="S02.svg"><rect x="16" y="168" width="192" height="44" fill="#FFFFFF" fill-opacity="0"><title>Learn</title></rect></a><a xlink:href="S08.svg"><rect x="16" y="226" width="192" height="44" fill="#FFFFFF" fill-opacity="0"><title>Homework</title></rect></a><a xlink:href="S12.svg"><rect x="16" y="284" width="192" height="44" fill="#FFFFFF" fill-opacity="0"><title>My progress</title></rect></a><a xlink:href="S10.svg"><rect x="16" y="342" width="192" height="44" fill="#FFFFFF" fill-opacity="0"><title>Resources</title></rect></a><a xlink:href="S09.svg"><rect x="16" y="400" width="192" height="44" fill="#FFFFFF" fill-opacity="0"><title>Connect</title></rect></a><a xlink:href="S11.svg"><rect x="16" y="458" width="192" height="44" fill="#FFFFFF" fill-opacity="0"><title>My Rafiqi</title></rect></a></svg>